<svg width="512" height="512" viewBox="0 0 512 512" fill="none" xmlns="http://www.w3.org/2000/svg">
<path d="M253.646 365.036C245.7 375.579 253.221 390.666 266.423 390.666H437.713C446.549 390.666 453.713 397.83 453.713 406.666V427C453.713 435.837 446.549 443 437.713 443H172C163.163 443 156 435.837 156 427V401.215C156 397.743 157.129 394.365 159.217 391.591L343.618 146.65C351.556 136.106 344.034 121.027 330.836 121.027H175.119C166.283 121.027 159.119 113.863 159.119 105.027V84C159.119 75.1634 166.283 68 175.119 68H427.315C436.152 68 443.315 75.1634 443.315 84V108.047C443.315 111.522 442.184 114.903 440.092 117.678L253.646 365.036Z" fill="#7DC13E" fill-opacity="0.5"/>
<path d="M204.646 365.036C196.7 375.579 204.221 390.666 217.423 390.666H388.713C397.549 390.666 404.713 397.83 404.713 406.666V427C404.713 435.837 397.549 443 388.713 443H123C114.163 443 107 435.837 107 427V401.215C107 397.743 108.129 394.365 110.217 391.591L294.618 146.65C302.556 136.106 295.034 121.027 281.836 121.027H126.119C117.283 121.027 110.119 113.863 110.119 105.027V84C110.119 75.1634 117.283 68 126.119 68H378.315C387.152 68 394.315 75.1634 394.315 84V108.047C394.315 111.522 393.184 114.903 391.092 117.678L204.646 365.036Z" fill="#C13E7D" fill-opacity="0.5"/>
<path d="M155.646 365.036C147.7 375.579 155.221 390.666 168.423 390.666H339.713C348.549 390.666 355.713 397.83 355.713 406.666V427C355.713 435.837 348.549 443 339.713 443H74C65.1634 443 58 435.837 58 427V401.214C58 397.743 59.1293 394.365 61.2174 391.591L245.618 146.65C253.556 136.106 246.034 121.027 232.836 121.027H77.1192C68.2827 121.027 61.1192 113.863 61.1192 105.027V84C61.1192 75.1634 68.3143 68 77.1508 68C173.109 68 233.325 68 329.284 68C338.12 68 345.315 75.1634 345.315 84V108.047C345.315 111.522 344.184 114.903 342.092 117.678L155.646 365.036Z" fill="#3E7DC1" fill-opacity="0.5"/>
</svg>
