<svg width="512" height="512" viewBox="0 0 512 512" fill="none" xmlns="http://www.w3.org/2000/svg">
<g clip-path="url(#clip0)">
<rect x="247.5" y="199.5" width="34" height="14" fill="#CECECE" stroke="black"/>
<rect x="229.5" y="184.5" width="34" height="14" fill="#CECECE" stroke="black"/>
<rect x="247.5" y="169.5" width="34" height="14" fill="#CECECE" stroke="black"/>
<rect x="229.5" y="154.5" width="34" height="14" fill="#CECECE" stroke="black"/>
<rect x="258.175" y="138.045" width="34" height="14" transform="rotate(5 258.175 138.045)" fill="#CECECE" stroke="black"/>
<rect x="218.955" y="126.008" width="34" height="14" transform="rotate(-5 218.955 126.008)" fill="#CECECE" stroke="black"/>
<rect x="268.64" y="107.202" width="34" height="14" transform="rotate(8 268.64 107.202)" fill="#CECECE" stroke="black"/>
<rect x="279.148" y="76.3849" width="34" height="14" transform="rotate(11 279.148 76.3849)" fill="#CECECE" stroke="black"/>
<rect x="289.698" y="45.5952" width="34" height="14" transform="rotate(14 289.698 45.5952)" fill="#CECECE" stroke="black"/>
<rect x="300.289" y="14.8356" width="34" height="14" transform="rotate(17 300.289 14.8356)" fill="#CECECE" stroke="black"/>
<rect x="310.919" y="-15.8922" width="34" height="14" transform="rotate(20 310.919 -15.8922)" fill="#CECECE" stroke="black"/>
<rect x="208.691" y="96.9341" width="34" height="14" transform="rotate(-8 208.691 96.9341)" fill="#CECECE" stroke="black"/>
<rect x="198.477" y="67.8724" width="34" height="14" transform="rotate(-11 198.477 67.8724)" fill="#CECECE" stroke="black"/>
<rect x="188.312" y="38.8206" width="34" height="14" transform="rotate(-14 188.312 38.8206)" fill="#CECECE" stroke="black"/>
<rect x="178.196" y="9.77618" width="34" height="14" transform="rotate(-17 178.196 9.77618)" fill="#CECECE" stroke="black"/>
<rect x="247.5" y="229.5" width="34" height="14" fill="#CECECE" stroke="black"/>
<rect x="229.5" y="214.5" width="34" height="14" fill="#CECECE" stroke="black"/>
<rect x="247.5" y="259.5" width="34" height="14" fill="#CECECE" stroke="black"/>
<rect x="247.5" y="289.5" width="34" height="14" fill="#CECECE" stroke="black"/>
<rect x="247.5" y="319.5" width="34" height="14" fill="#CECECE" stroke="black"/>
<rect x="247.5" y="349.5" width="34" height="14" fill="#CECECE" stroke="black"/>
<rect x="247.5" y="379.5" width="34" height="14" fill="#CECECE" stroke="black"/>
<rect x="247.5" y="409.5" width="34" height="14" fill="#CECECE" stroke="black"/>
<rect x="247.5" y="439.5" width="34" height="14" fill="#CECECE" stroke="black"/>
<rect x="229.5" y="244.5" width="34" height="14" fill="#CECECE" stroke="black"/>
<rect x="229.5" y="274.5" width="34" height="14" fill="#CECECE" stroke="black"/>
<rect x="229.5" y="304.5" width="34" height="14" fill="#CECECE" stroke="black"/>
<rect x="229.5" y="334.5" width="34" height="14" fill="#CECECE" stroke="black"/>
<rect x="229.5" y="364.5" width="34" height="14" fill="#CECECE" stroke="black"/>
<rect x="229.5" y="394.5" width="34" height="14" fill="#CECECE" stroke="black"/>
<rect x="229.5" y="424.5" width="34" height="14" fill="#CECECE" stroke="black"/>
<rect x="247.5" y="469.5" width="34" height="14" fill="#CECECE" stroke="black"/>
<rect x="229.5" y="454.5" width="34" height="14" fill="#CECECE" stroke="black"/>
<rect x="247.5" y="499.5" width="34" height="14" fill="#CECECE" stroke="black"/>
<rect x="229.5" y="484.5" width="34" height="14" fill="#CECECE" stroke="black"/>
<mask id="path-36-inside-1" fill="white">
<path fill-rule="evenodd" clip-rule="evenodd" d="M289 139.717C306.99 130.938 319 115.091 319 97C319 69.3858 291.018 47 256.5 47C221.982 47 194 69.3858 194 97C194 115.091 206.01 130.938 224 139.717V172C224 178.627 229.373 184 236 184H277C283.627 184 289 178.627 289 172V139.717Z"/>
</mask>
<path fill-rule="evenodd" clip-rule="evenodd" d="M289 139.717C306.99 130.938 319 115.091 319 97C319 69.3858 291.018 47 256.5 47C221.982 47 194 69.3858 194 97C194 115.091 206.01 130.938 224 139.717V172C224 178.627 229.373 184 236 184H277C283.627 184 289 178.627 289 172V139.717Z" fill="#CECECE"/>
<path d="M289 139.717L288.561 138.818L288 139.092V139.717H289ZM224 139.717H225V139.092L224.439 138.818L224 139.717ZM318 97C318 114.614 306.302 130.161 288.561 138.818L289.439 140.615C307.677 131.716 320 115.569 320 97H318ZM256.5 48C290.685 48 318 70.1347 318 97H320C320 68.6368 291.35 46 256.5 46V48ZM195 97C195 70.1347 222.315 48 256.5 48V46C221.65 46 193 68.6368 193 97H195ZM224.439 138.818C206.698 130.161 195 114.614 195 97H193C193 115.569 205.323 131.716 223.561 140.615L224.439 138.818ZM225 172V139.717H223V172H225ZM236 183C229.925 183 225 178.075 225 172H223C223 179.18 228.82 185 236 185V183ZM277 183H236V185H277V183ZM288 172C288 178.075 283.075 183 277 183V185C284.18 185 290 179.18 290 172H288ZM288 139.717V172H290V139.717H288Z" fill="black" mask="url(#path-36-inside-1)"/>
<mask id="path-38-inside-2" fill="white">
<path fill-rule="evenodd" clip-rule="evenodd" d="M206 121C206 112.716 212.716 106 221 106H291C299.284 106 306 112.716 306 121V391C306 399.284 299.284 406 291 406H221C212.716 406 206 399.284 206 391V121ZM219 136C219 129.373 224.373 124 231 124H282C288.627 124 294 129.373 294 136V192C294 198.627 288.627 204 282 204H231C224.373 204 219 198.627 219 192V136ZM231 353C224.373 353 219 358.373 219 365V376C219 382.627 224.373 388 231 388H282C288.627 388 294 382.627 294 376V365C294 358.373 288.627 353 282 353H231Z"/>
</mask>
<path fill-rule="evenodd" clip-rule="evenodd" d="M206 121C206 112.716 212.716 106 221 106H291C299.284 106 306 112.716 306 121V391C306 399.284 299.284 406 291 406H221C212.716 406 206 399.284 206 391V121ZM219 136C219 129.373 224.373 124 231 124H282C288.627 124 294 129.373 294 136V192C294 198.627 288.627 204 282 204H231C224.373 204 219 198.627 219 192V136ZM231 353C224.373 353 219 358.373 219 365V376C219 382.627 224.373 388 231 388H282C288.627 388 294 382.627 294 376V365C294 358.373 288.627 353 282 353H231Z" fill="#CECECE"/>
<path d="M221 105C212.163 105 205 112.163 205 121H207C207 113.268 213.268 107 221 107V105ZM291 105H221V107H291V105ZM307 121C307 112.163 299.837 105 291 105V107C298.732 107 305 113.268 305 121H307ZM307 391V121H305V391H307ZM291 407C299.837 407 307 399.837 307 391H305C305 398.732 298.732 405 291 405V407ZM221 407H291V405H221V407ZM205 391C205 399.837 212.163 407 221 407V405C213.268 405 207 398.732 207 391H205ZM205 121V391H207V121H205ZM231 123C223.82 123 218 128.82 218 136H220C220 129.925 224.925 125 231 125V123ZM282 123H231V125H282V123ZM295 136C295 128.82 289.18 123 282 123V125C288.075 125 293 129.925 293 136H295ZM295 192V136H293V192H295ZM282 205C289.18 205 295 199.18 295 192H293C293 198.075 288.075 203 282 203V205ZM231 205H282V203H231V205ZM218 192C218 199.18 223.82 205 231 205V203C224.925 203 220 198.075 220 192H218ZM218 136V192H220V136H218ZM220 365C220 358.925 224.925 354 231 354V352C223.82 352 218 357.82 218 365H220ZM220 376V365H218V376H220ZM231 387C224.925 387 220 382.075 220 376H218C218 383.18 223.82 389 231 389V387ZM282 387H231V389H282V387ZM293 376C293 382.075 288.075 387 282 387V389C289.18 389 295 383.18 295 376H293ZM293 365V376H295V365H293ZM282 354C288.075 354 293 358.925 293 365H295C295 357.82 289.18 352 282 352V354ZM231 354H282V352H231V354Z" fill="black" mask="url(#path-38-inside-2)"/>
<line x1="219.5" y1="340.5" x2="292.5" y2="340.5" stroke="black" stroke-linecap="round" stroke-linejoin="round"/>
<line x1="219.5" y1="300.5" x2="292.5" y2="300.5" stroke="black" stroke-linecap="round" stroke-linejoin="round"/>
<rect x="233.5" y="65.5" width="44" height="99" rx="11.5" fill="#CECECE" stroke="black"/>
</g>
<defs>
<clipPath id="clip0">
<rect width="512" height="512" fill="white"/>
</clipPath>
</defs>
</svg>
